<svg id="svg" version="1.1" xmlns="http://www.w3.org/2000/svg" xmlns:xlink="http://www.w3.org/1999/xlink" width="400" height="347.8696741854637" viewBox="0, 0, 400,347.8696741854637"><g id="svgg"><path id="path0" d="M198.085 11.344 C 197.224 11.417,193.777 11.640,190.426 11.840 C 187.076 12.040,183.473 12.350,182.419 12.529 C 181.366 12.709,178.860 13.109,176.849 13.420 C 151.410 17.344,129.050 27.095,107.398 43.706 C 101.251 48.422,90.862 58.381,90.862 59.558 C 90.862 60.015,311.467 59.987,311.749 59.531 C 312.185 58.825,301.375 48.564,295.213 43.835 C 277.689 30.386,264.252 23.567,241.775 16.718 C 238.245 15.642,228.726 13.563,224.195 12.879 C 216.951 11.785,202.759 10.950,198.085 11.344 M49.966 177.183 C 49.455 178.010,51.120 189.800,52.795 197.215 C 54.098 202.982,56.420 210.711,58.981 217.807 C 66.052 237.395,79.282 257.338,95.492 272.846 C 102.832 279.868,102.698 279.843,102.698 274.176 C 102.698 269.295,102.829 268.990,105.085 268.630 C 105.849 268.508,106.916 268.036,107.458 267.582 C 107.999 267.128,108.953 266.645,109.577 266.509 C 110.201 266.373,110.958 266.016,111.258 265.716 C 111.895 265.079,114.014 264.614,116.385 264.593 C 117.307 264.585,118.366 264.415,118.737 264.216 C 119.264 263.934,120.470 264.203,124.204 265.435 C 126.838 266.304,129.166 267.015,129.376 267.015 C 130.873 267.015,131.593 268.421,131.593 271.349 C 131.593 273.249,131.742 274.356,132.028 274.579 C 132.631 275.048,136.494 275.810,137.530 275.664 L 138.381 275.544 138.381 270.961 C 138.381 268.440,138.492 266.266,138.628 266.130 C 139.023 265.734,141.690 265.306,143.858 265.289 C 146.294 265.271,146.405 265.021,146.118 260.209 C 145.851 255.736,145.307 256.124,154.866 253.968 C 160.451 252.708,160.139 252.997,160.139 249.072 C 160.139 246.031,160.204 245.718,160.969 245.053 C 161.730 244.391,161.820 243.969,162.049 240.002 C 162.371 234.428,162.081 234.724,169.191 232.711 C 175.004 231.065,176.390 230.671,180.157 229.592 C 184.760 228.273,184.380 228.258,189.246 229.971 C 191.714 230.839,195.367 232.085,197.364 232.739 C 201.822 234.199,201.555 233.732,201.561 240.082 C 201.567 245.315,201.572 245.355,202.437 245.921 L 203.307 246.491 203.313 254.055 C 203.318 261.599,203.503 262.981,204.412 262.244 C 204.666 262.037,206.127 261.613,207.659 261.301 C 209.191 260.989,211.200 260.580,212.124 260.393 C 214.284 259.955,216.089 259.958,216.362 260.400 C 216.651 260.867,218.136 260.842,218.911 260.358 C 219.563 259.951,224.355 260.920,226.857 261.966 C 228.335 262.584,228.355 262.699,228.459 271.192 C 228.534 277.265,228.624 278.329,229.069 278.329 C 229.517 278.329,229.621 276.783,229.805 267.363 C 230.142 250.143,230.915 244.242,233.061 242.521 C 233.753 241.965,234.533 240.998,234.795 240.371 C 235.331 239.090,235.260 239.121,240.035 238.106 C 245.821 236.877,246.875 236.854,249.091 237.903 C 250.152 238.405,251.229 238.816,251.486 238.816 C 254.779 238.816,256.544 248.259,256.616 266.259 C 256.641 272.515,256.759 280.606,256.877 284.239 L 257.093 290.845 259.356 291.439 C 262.959 292.385,264.962 292.584,265.311 292.032 C 265.477 291.771,265.614 283.535,265.617 273.729 C 265.622 257.105,265.663 255.878,266.232 255.579 C 267.317 255.009,269.891 254.703,273.803 254.680 C 277.561 254.657,277.631 254.642,277.550 253.873 C 277.456 252.986,278.309 252.779,278.629 253.612 C 279.001 254.580,280.832 254.150,285.292 252.045 C 290.238 249.711,290.633 249.641,292.602 250.757 L 293.995 251.545 294.085 267.125 C 294.196 286.195,293.461 285.010,301.058 278.365 C 310.286 270.293,315.862 264.337,323.094 254.830 C 328.309 247.976,335.162 236.856,338.005 230.635 C 338.355 229.869,339.307 227.833,340.121 226.110 C 342.638 220.775,345.543 212.666,348.288 203.307 C 350.474 195.855,352.932 181.427,352.691 177.459 C 352.649 176.756,50.400 176.481,49.966 177.183 " stroke="none" fill="#ea6b4c" fill-rule="evenodd"></path><path id="path1" d="M181.570 1.578 C 180.930 2.062,180.952 2.089,181.994 2.089 C 182.829 2.089,183.046 1.963,182.894 1.567 C 182.647 0.924,182.432 0.925,181.570 1.578 M218.973 1.567 C 218.973 1.891,219.302 2.089,219.843 2.089 C 220.322 2.089,220.714 1.914,220.714 1.700 C 220.714 1.483,220.407 1.392,220.017 1.494 C 219.634 1.594,219.408 1.534,219.515 1.360 C 219.623 1.186,219.544 1.044,219.342 1.044 C 219.139 1.044,218.973 1.279,218.973 1.567 M174.848 2.319 C 174.259 2.557,174.294 3.133,174.897 3.133 C 175.164 3.133,175.473 2.898,175.583 2.611 C 175.788 2.077,175.616 2.009,174.848 2.319 M226.863 2.634 C 226.968 2.909,227.346 3.133,227.703 3.133 C 228.559 3.133,228.220 2.252,227.339 2.185 C 226.892 2.152,226.735 2.300,226.863 2.634 M232.795 3.713 C 232.893 3.969,233.113 4.178,233.284 4.178 C 233.455 4.178,233.594 3.969,233.594 3.713 C 233.594 3.458,233.374 3.249,233.105 3.249 C 232.836 3.249,232.697 3.458,232.795 3.713 M130.039 16.484 C 129.488 16.887,129.476 16.973,129.948 17.154 C 130.269 17.277,130.577 17.137,130.702 16.812 C 130.995 16.047,130.781 15.941,130.039 16.484 M127.917 17.558 C 127.248 18.053,127.248 18.058,127.918 17.963 C 128.291 17.911,128.657 17.686,128.731 17.463 C 128.908 16.932,128.736 16.952,127.917 17.558 M3.655 58.491 C 3.081 58.684,2.275 58.764,1.864 58.667 C 1.403 58.558,1.043 58.684,0.923 58.996 C 0.754 59.436,5.631 59.503,38.471 59.518 L 76.213 59.534 76.615 58.783 C 76.973 58.116,76.945 58.063,76.368 58.309 C 76.010 58.462,75.483 58.582,75.196 58.576 C 61.112 58.295,4.435 58.228,3.655 58.491 M347.759 58.275 C 347.667 58.367,342.856 58.474,337.068 58.513 C 327.470 58.578,325.561 58.730,327.068 59.308 C 328.058 59.688,399.760 59.380,399.888 58.995 C 400.076 58.433,348.316 57.718,347.759 58.275 M158.407 90.150 C 158.166 90.600,158.073 95.638,158.134 105.032 L 158.225 119.234 160.080 119.340 C 163.045 119.510,162.924 119.945,162.924 109.070 C 162.924 100.683,162.989 99.528,163.456 99.626 C 163.755 99.690,165.770 103.311,168.069 107.920 L 172.150 116.101 173.825 116.101 C 175.822 116.101,175.235 116.960,180.191 106.789 C 183.377 100.249,184.198 98.849,184.582 99.304 C 184.622 99.352,184.740 103.856,184.843 109.312 L 185.030 119.234 187.119 119.234 L 189.208 119.234 189.208 104.439 L 189.208 89.643 187.134 89.537 C 183.542 89.352,183.943 88.896,179.144 98.612 C 174.246 108.528,174.031 108.893,173.468 108.212 C 173.255 107.956,171.116 103.799,168.714 98.976 C 166.139 93.805,164.065 90.055,163.659 89.838 C 162.392 89.160,158.823 89.372,158.407 90.150 M196.732 89.945 C 196.448 90.286,196.362 94.481,196.428 104.827 L 196.519 119.234 198.782 119.234 L 201.044 119.234 201.136 104.787 C 201.220 91.514,201.179 90.304,200.634 89.904 C 199.840 89.322,197.226 89.349,196.732 89.945 M208.181 89.810 C 207.484 90.250,207.193 118.115,207.877 118.939 C 208.174 119.296,208.894 119.409,210.412 119.336 L 212.533 119.234 212.707 109.399 C 212.815 103.279,213.012 99.531,213.229 99.477 C 213.420 99.430,216.710 103.581,220.540 108.702 C 229.523 120.716,228.278 119.460,231.081 119.337 L 233.420 119.234 233.511 104.827 C 233.614 88.492,233.770 89.385,230.855 89.540 C 228.356 89.673,228.450 89.253,228.407 100.551 C 228.380 107.713,228.277 109.689,227.937 109.583 C 227.698 109.508,224.337 105.226,220.469 100.067 C 216.601 94.909,213.098 90.413,212.685 90.078 C 211.863 89.412,209.074 89.245,208.181 89.810 M240.557 89.810 C 239.872 90.243,239.568 118.114,240.240 118.924 C 240.651 119.419,243.484 119.599,244.532 119.197 C 245.365 118.877,245.369 90.849,244.536 90.016 C 243.928 89.409,241.399 89.278,240.557 89.810 M61.340 133.055 C 61.111 133.285,60.923 134.219,60.923 135.131 C 60.923 137.322,61.335 137.511,66.122 137.511 C 68.240 137.511,70.008 137.550,70.050 137.598 C 70.091 137.646,70.209 143.246,70.311 150.044 L 70.496 162.402 72.759 162.402 L 75.022 162.402 75.196 150.044 L 75.370 137.685 79.547 137.511 C 81.845 137.415,83.921 137.210,84.160 137.055 C 84.719 136.694,84.732 133.609,84.178 133.055 C 83.580 132.457,61.938 132.457,61.340 133.055 M88.115 133.113 C 87.832 133.454,87.746 137.649,87.812 147.995 L 87.903 162.402 90.165 162.402 L 92.428 162.402 92.526 158.318 C 92.645 153.354,92.533 153.460,97.563 153.600 L 101.131 153.699 103.751 158.050 L 106.371 162.402 108.765 162.506 C 112.263 162.658,112.272 162.496,109.023 157.726 C 105.730 152.892,105.726 152.874,107.600 151.496 C 113.522 147.141,112.931 137.428,106.550 134.222 C 103.497 132.689,89.182 131.827,88.115 133.113 M117.479 133.072 C 117.387 133.312,117.352 140.009,117.403 147.955 L 117.493 162.402 119.756 162.402 L 122.019 162.402 122.110 147.804 C 122.181 136.356,122.106 133.145,121.762 132.926 C 121.041 132.469,117.666 132.584,117.479 133.072 M129.195 133.113 C 128.911 133.454,128.825 137.649,128.891 147.995 L 128.982 162.402 131.245 162.402 L 133.507 162.402 133.681 158.298 C 133.893 153.299,133.612 153.537,139.325 153.530 C 146.603 153.521,150.505 151.293,151.891 146.355 C 153.800 139.550,150.413 134.234,143.401 133.030 C 139.998 132.446,129.698 132.506,129.195 133.113 M165.445 133.246 C 165.066 133.581,164.008 135.579,163.093 137.685 C 158.875 147.397,157.675 150.141,156.970 151.688 C 152.002 162.584,152.003 162.578,154.851 162.571 C 157.401 162.564,157.465 162.512,158.768 159.433 C 160.374 155.639,159.573 155.935,167.921 156.042 L 175.259 156.136 176.544 159.054 C 178.053 162.481,178.153 162.564,180.777 162.571 C 183.630 162.578,183.632 162.538,181.027 156.832 C 180.590 155.875,179.249 152.820,178.047 150.044 C 172.349 136.880,171.031 133.965,170.484 133.326 C 169.692 132.401,166.459 132.350,165.445 133.246 M186.636 133.113 C 186.352 133.454,186.267 137.649,186.332 147.995 L 186.423 162.402 193.386 162.507 C 199.077 162.592,200.754 162.503,202.573 162.020 C 217.792 157.972,217.289 136.393,201.900 133.156 C 198.549 132.451,187.211 132.419,186.636 133.113 M214.679 132.869 C 214.308 133.240,214.409 134.265,214.938 135.497 C 215.799 137.504,217.449 141.621,221.257 151.262 C 226.190 163.754,225.453 162.576,228.339 162.576 C 231.282 162.576,230.778 163.278,234.462 154.047 C 236.143 149.835,237.724 145.918,237.975 145.344 C 240.053 140.585,242.670 133.550,242.513 133.141 C 242.246 132.445,238.370 132.438,237.795 133.132 C 237.569 133.404,237.101 134.383,236.755 135.308 C 228.804 156.577,228.557 157.082,227.513 154.209 C 225.137 147.672,219.855 134.036,219.460 133.420 C 218.960 132.641,215.326 132.222,214.679 132.869 M246.179 133.097 C 245.878 133.459,245.795 137.382,245.862 147.995 L 245.953 162.402 248.216 162.402 L 250.479 162.402 250.479 147.607 L 250.479 132.811 248.533 132.708 C 247.179 132.637,246.462 132.755,246.179 133.097 M262.628 133.157 C 256.795 134.998,254.419 140.901,257.752 145.271 C 259.169 147.129,260.287 147.753,265.049 149.345 C 270.006 151.001,271.052 151.546,271.709 152.817 C 274.526 158.266,264.870 159.711,258.267 154.829 C 257.058 153.935,256.431 154.189,255.542 155.931 C 254.504 157.966,254.615 158.275,256.929 159.770 C 265.903 165.571,277.807 162.357,277.807 154.134 C 277.807 149.601,275.872 147.771,268.299 145.138 C 263.859 143.594,262.936 143.047,262.327 141.600 C 260.808 137.985,266.031 136.224,271.786 138.410 C 275.627 139.869,275.522 139.876,276.395 138.073 C 277.426 135.943,277.247 135.397,275.196 134.414 C 271.525 132.654,265.978 132.099,262.628 133.157 M291.573 133.173 C 280.044 136.335,276.342 150.236,284.839 158.457 C 293.068 166.419,307.927 162.756,311.132 151.976 C 314.517 140.592,303.420 129.923,291.573 133.173 M316.140 133.113 C 315.856 133.454,315.771 137.649,315.836 147.995 L 315.927 162.402 318.047 162.504 C 320.840 162.639,320.930 162.495,321.050 157.681 L 321.149 153.699 324.456 153.597 C 329.168 153.451,328.962 153.331,331.620 157.791 C 334.453 162.545,334.489 162.576,337.209 162.576 C 340.216 162.576,340.209 162.389,337.023 157.580 C 333.698 152.561,333.753 152.869,335.904 151.324 C 341.628 147.212,340.864 137.382,334.574 134.222 C 331.522 132.689,317.206 131.827,316.140 133.113 M300.684 138.434 C 309.642 142.661,307.592 156.180,297.720 157.975 C 287.544 159.824,281.114 146.719,288.859 139.919 C 291.991 137.169,296.739 136.573,300.684 138.434 M104.019 138.204 C 107.778 139.911,107.803 145.930,104.060 148.121 C 102.317 149.142,93.756 149.400,93.064 148.453 C 92.584 147.797,92.378 139.198,92.814 138.062 C 93.156 137.169,101.984 137.281,104.019 138.204 M145.281 138.656 C 148.331 140.986,148.140 146.011,144.926 147.998 C 143.093 149.131,134.892 149.477,134.143 148.453 C 133.510 147.588,133.487 138.543,134.117 137.906 C 135.069 136.943,143.806 137.531,145.281 138.656 M202.803 138.435 C 210.655 142.153,210.392 153.828,202.381 157.236 C 200.317 158.115,192.508 158.342,191.714 157.547 C 191.113 156.946,190.773 139.522,191.334 138.062 C 191.741 137.002,200.370 137.283,202.803 138.435 M332.253 138.300 C 335.905 140.394,335.826 145.929,332.114 148.110 C 331.042 148.739,330.312 148.825,326.023 148.825 L 321.149 148.825 321.053 143.168 L 320.958 137.511 325.927 137.517 C 330.427 137.522,331.025 137.596,332.253 138.300 M169.172 141.699 C 169.702 142.938,170.443 144.656,170.820 145.518 C 173.501 151.652,173.722 151.237,167.700 151.359 C 161.778 151.479,161.965 151.880,164.829 145.193 C 167.911 137.997,167.672 138.189,169.172 141.699 M363.795 178.727 C 363.795 179.092,363.637 179.230,363.393 179.079 C 363.144 178.925,363.085 178.984,363.239 179.233 C 363.376 179.454,363.302 179.634,363.076 179.634 C 362.772 179.634,362.766 179.756,363.053 180.102 C 363.266 180.359,363.363 180.672,363.269 180.798 C 363.175 180.924,363.216 180.936,363.359 180.824 C 363.503 180.712,363.628 180.516,363.638 180.389 C 363.647 180.261,363.779 179.792,363.931 179.347 C 364.082 178.902,364.114 178.445,364.000 178.332 C 363.887 178.219,363.795 178.396,363.795 178.727 M38.990 183.421 C 38.990 183.636,39.142 183.812,39.328 183.812 C 39.513 183.812,39.581 184.031,39.478 184.299 C 39.375 184.567,39.458 184.889,39.663 185.016 C 40.243 185.374,40.105 183.956,39.513 183.464 C 39.152 183.164,38.990 183.151,38.990 183.421 M344.386 265.183 C 344.147 265.265,343.951 265.722,343.951 266.198 C 343.951 266.986,344.001 267.015,344.499 266.517 C 345.122 265.894,345.043 264.957,344.386 265.183 M343.974 279.730 C 343.969 286.579,344.047 292.101,344.146 292.001 C 344.399 291.748,344.440 267.736,344.188 267.484 C 344.075 267.371,343.979 272.882,343.974 279.730 M40.487 268.524 C 40.609 268.843,40.557 269.104,40.372 269.104 C 40.187 269.104,40.035 269.743,40.035 270.525 C 40.035 272.499,40.813 272.129,40.985 270.074 C 41.071 269.054,40.964 268.377,40.692 268.209 C 40.395 268.026,40.333 268.122,40.487 268.524 M63.116 269.490 C 63.342 269.852,63.719 270.148,63.954 270.148 C 64.599 270.148,64.103 269.197,63.356 269.002 C 62.795 268.855,62.761 268.922,63.116 269.490 M31.332 272.912 C 31.332 273.476,31.488 274.033,31.680 274.151 C 31.887 274.279,32.028 273.865,32.028 273.128 C 32.028 272.446,31.871 271.889,31.680 271.889 C 31.488 271.889,31.332 272.349,31.332 272.912 M65.217 276.762 C 65.217 278.198,65.279 278.786,65.354 278.068 C 65.429 277.350,65.429 276.175,65.354 275.457 C 65.279 274.739,65.217 275.326,65.217 276.762 M31.543 277.661 C 31.198 278.560,31.303 281.229,31.692 281.470 C 31.929 281.616,32.031 280.908,31.990 279.402 C 31.923 276.969,31.877 276.790,31.543 277.661 M64.263 281.723 C 64.553 283.669,64.506 291.831,64.184 295.511 C 64.062 296.904,64.131 297.865,64.371 298.105 C 64.647 298.381,64.770 297.866,64.816 296.240 L 64.880 293.995 65.100 296.780 C 65.304 299.351,65.325 299.210,65.384 294.952 C 65.424 292.067,65.318 290.339,65.100 290.339 C 64.909 290.339,64.752 289.713,64.752 288.947 C 64.752 288.181,64.909 287.554,65.100 287.554 C 65.293 287.554,65.448 286.626,65.448 285.466 C 65.448 284.305,65.293 283.377,65.100 283.377 C 64.909 283.377,64.752 282.594,64.752 281.636 C 64.752 280.608,64.596 279.896,64.371 279.896 C 64.109 279.896,64.075 280.466,64.263 281.723 M31.575 284.713 C 31.218 288.632,31.301 345.980,31.664 346.205 C 32.319 346.609,32.689 289.577,32.068 283.899 L 31.840 281.810 31.575 284.713 M69.521 282.942 C 69.176 283.561,69.318 293.624,69.679 294.059 C 69.955 294.391,69.952 294.517,69.668 294.517 C 69.453 294.517,69.278 294.830,69.278 295.213 C 69.278 295.625,69.510 295.909,69.845 295.909 C 70.324 295.909,70.375 295.651,70.170 294.256 C 70.037 293.346,69.939 292.093,69.951 291.471 C 70.011 288.519,69.990 287.998,69.769 286.896 C 69.617 286.140,69.658 285.792,69.881 285.930 C 70.095 286.063,70.229 285.481,70.229 284.413 C 70.229 282.861,69.922 282.223,69.521 282.942 M100.310 295.213 C 100.337 297.224,100.513 299.064,100.701 299.304 C 100.931 299.596,100.915 299.739,100.652 299.739 C 100.437 299.739,100.263 300.170,100.266 300.696 C 100.271 301.442,100.346 301.538,100.609 301.131 C 100.812 300.818,100.949 300.775,100.952 301.024 C 100.955 301.252,100.820 301.523,100.653 301.627 C 100.270 301.863,100.249 303.568,100.629 303.568 C 100.783 303.568,100.971 303.921,101.047 304.352 C 101.123 304.782,101.215 302.502,101.252 299.284 C 101.289 296.066,101.334 293.324,101.353 293.192 C 101.455 292.485,101.233 291.603,101.062 292.032 C 100.902 292.433,100.825 292.433,100.566 292.032 C 100.380 291.745,100.279 292.996,100.310 295.213 M346.647 292.109 C 346.310 292.306,345.890 292.377,345.713 292.267 C 345.536 292.158,345.278 292.267,345.138 292.510 C 344.998 292.752,345.012 292.834,345.169 292.692 C 345.326 292.550,345.667 292.611,345.928 292.827 C 346.287 293.126,346.553 293.083,347.031 292.650 C 347.768 291.984,349.547 291.897,350.148 292.498 C 350.473 292.823,350.662 292.811,351.001 292.447 C 351.356 292.064,351.326 292.016,350.838 292.188 C 350.509 292.303,350.147 292.248,350.034 292.065 C 349.763 291.626,347.424 291.657,346.647 292.109 M101.867 295.990 C 101.706 297.278,101.704 298.610,101.863 298.949 C 102.212 299.691,102.455 297.441,102.275 295.126 C 102.171 293.775,102.135 293.850,101.867 295.990 M65.986 300.514 C 66.167 301.455,66.888 302.268,67.235 301.921 C 67.391 301.765,67.405 301.249,67.267 300.775 C 66.959 299.721,65.787 299.482,65.986 300.514 M366.009 304.258 C 365.969 306.784,366.058 307.398,366.462 307.398 C 367.079 307.398,367.061 302.491,366.442 301.644 C 366.150 301.245,366.046 301.874,366.009 304.258 M321.461 303.382 C 320.952 303.758,320.895 303.965,321.212 304.287 C 321.723 304.805,322.715 304.466,322.715 303.774 C 322.715 302.999,322.199 302.838,321.461 303.382 M319.454 306.628 C 319.361 306.778,319.673 306.934,320.149 306.973 C 320.647 307.015,320.922 306.899,320.799 306.699 C 320.544 306.286,319.693 306.241,319.454 306.628 M366.112 308.007 C 365.824 308.475,365.945 310.876,366.266 311.075 C 366.439 311.181,366.580 310.476,366.580 309.507 C 366.580 307.820,366.461 307.439,366.112 308.007 M365.883 313.316 C 365.883 314.082,366.040 314.708,366.232 314.708 C 366.423 314.708,366.580 314.082,366.580 313.316 C 366.580 312.550,366.423 311.923,366.232 311.923 C 366.040 311.923,365.883 312.550,365.883 313.316 M365.883 315.376 C 365.883 315.939,366.297 316.797,366.569 316.797 C 366.713 316.797,366.756 316.406,366.665 315.927 C 366.509 315.113,365.883 314.672,365.883 315.376 " stroke="none" fill="#f2f4f6" fill-rule="evenodd"></path><path id="path2" d="M181.375 1.393 C 181.088 1.578,179.874 1.732,178.677 1.735 C 177.381 1.738,176.501 1.890,176.501 2.109 C 176.501 2.312,176.344 2.380,176.151 2.261 C 175.958 2.142,175.706 2.290,175.591 2.589 C 175.362 3.186,174.413 3.344,174.413 2.785 C 174.413 2.594,174.595 2.437,174.819 2.437 C 175.042 2.437,175.124 2.336,175.001 2.213 C 174.878 2.090,174.563 2.168,174.300 2.386 C 174.037 2.604,172.780 2.811,171.507 2.846 C 169.522 2.901,169.191 3.000,169.191 3.544 C 169.191 3.892,169.025 4.178,168.822 4.178 C 168.619 4.178,168.543 4.032,168.654 3.853 C 168.764 3.675,168.705 3.438,168.524 3.326 C 168.343 3.214,168.096 3.281,167.976 3.476 C 167.855 3.670,167.130 3.829,166.364 3.829 C 165.467 3.829,165.053 3.961,165.202 4.201 C 165.328 4.405,165.220 4.536,164.961 4.492 C 164.702 4.448,164.099 4.518,163.621 4.647 C 163.142 4.777,162.226 4.935,161.585 4.999 C 160.944 5.063,160.318 5.257,160.193 5.430 C 159.938 5.782,159.610 5.868,158.072 5.985 C 157.477 6.030,157.006 6.264,157.006 6.514 C 157.006 6.798,156.494 6.979,155.614 7.006 C 153.683 7.066,153.614 7.082,153.124 7.572 C 152.885 7.811,152.380 8.007,152.003 8.007 C 151.626 8.007,150.994 8.281,150.599 8.616 C 149.916 9.196,149.904 9.196,150.353 8.616 C 150.921 7.883,150.641 7.807,149.944 8.504 C 149.671 8.778,148.915 9.077,148.266 9.168 C 147.616 9.260,147.006 9.352,146.910 9.373 C 146.815 9.393,146.971 9.569,147.258 9.764 C 147.649 10.028,147.547 10.063,146.854 9.902 C 146.249 9.762,145.344 9.958,144.243 10.468 C 143.317 10.897,142.363 11.217,142.124 11.179 C 141.884 11.141,141.688 11.273,141.688 11.473 C 141.688 11.673,141.226 11.836,140.661 11.836 C 140.096 11.836,139.503 12.070,139.343 12.356 C 139.183 12.642,138.617 12.912,138.086 12.956 C 137.554 13.000,136.953 13.236,136.750 13.481 C 136.547 13.725,136.098 13.925,135.752 13.925 C 135.407 13.925,134.890 14.159,134.603 14.445 C 134.317 14.732,133.719 15.027,133.273 15.102 C 132.828 15.177,132.505 15.421,132.556 15.643 C 132.606 15.865,132.450 16.021,132.207 15.989 C 131.292 15.869,130.937 16.034,130.734 16.674 C 130.587 17.138,130.309 17.279,129.804 17.147 C 129.387 17.038,128.959 17.162,128.785 17.444 C 128.471 17.951,128.362 17.985,126.806 18.065 C 126.053 18.103,125.960 18.185,126.371 18.451 C 126.734 18.686,126.761 18.803,126.458 18.837 C 126.218 18.864,125.905 18.918,125.762 18.958 C 123.644 19.541,123.536 19.599,123.988 19.912 C 124.316 20.140,124.233 20.175,123.709 20.028 C 123.259 19.903,122.751 20.032,122.429 20.354 C 122.135 20.647,121.751 20.888,121.575 20.888 C 121.399 20.888,120.898 21.198,120.461 21.577 C 120.024 21.956,119.548 22.192,119.403 22.103 C 119.258 22.013,118.945 22.173,118.709 22.458 C 118.472 22.743,118.053 22.977,117.778 22.977 C 117.485 22.977,117.382 23.145,117.530 23.384 C 117.699 23.658,117.592 23.718,117.202 23.569 C 116.884 23.447,116.618 23.459,116.612 23.597 C 116.597 23.954,114.934 25.119,114.309 25.211 C 114.019 25.254,113.677 25.434,113.549 25.612 C 113.421 25.790,112.737 26.230,112.029 26.590 C 111.321 26.949,110.393 27.615,109.967 28.069 C 109.540 28.523,109.007 28.895,108.783 28.895 C 108.558 28.895,107.998 29.218,107.538 29.612 C 107.078 30.007,106.343 30.638,105.904 31.015 C 105.465 31.392,105.211 31.869,105.338 32.075 C 105.489 32.320,105.325 32.373,104.868 32.228 C 104.128 31.993,101.380 34.209,101.575 34.883 C 101.628 35.064,101.495 35.104,101.281 34.972 C 100.624 34.566,96.432 37.988,96.432 38.930 C 96.432 39.219,96.333 39.356,96.213 39.236 C 95.389 38.411,77.879 55.410,78.218 56.707 C 78.333 57.146,78.246 57.441,78.001 57.441 C 77.776 57.441,77.688 57.285,77.807 57.093 C 77.925 56.902,77.880 56.745,77.706 56.745 C 77.532 56.745,77.144 57.371,76.843 58.137 L 76.297 59.529 38.859 59.521 C 13.739 59.515,1.350 59.395,1.202 59.156 C 1.056 58.920,0.817 58.937,0.491 59.208 C -0.407 59.953,-0.227 177.052,0.673 177.533 C 1.114 177.769,7.860 177.894,20.169 177.894 L 38.990 177.894 38.990 180.390 C 38.990 182.064,39.154 183.068,39.487 183.436 C 39.836 183.822,40.011 185.056,40.073 187.564 C 40.133 190.010,40.306 191.263,40.620 191.523 C 40.905 191.760,41.079 192.681,41.079 193.950 C 41.079 195.658,41.180 196.001,41.688 196.021 C 42.235 196.043,42.231 196.072,41.646 196.302 C 41.044 196.538,41.038 196.602,41.559 197.123 C 41.869 197.433,42.124 198.166,42.124 198.752 C 42.124 199.723,42.649 202.369,43.097 203.655 C 43.197 203.943,43.252 204.299,43.220 204.448 C 43.188 204.597,43.375 204.801,43.635 204.901 C 43.925 205.012,44.046 205.412,43.947 205.930 C 43.858 206.396,43.905 207.054,44.051 207.392 C 44.398 208.194,44.543 208.772,44.794 210.357 C 44.907 211.075,45.131 211.662,45.292 211.662 C 45.452 211.662,45.499 211.881,45.396 212.149 C 45.293 212.417,45.377 212.740,45.581 212.866 C 45.786 212.993,45.953 213.522,45.953 214.042 C 45.953 214.563,46.181 215.314,46.459 215.711 C 46.737 216.109,47.047 216.886,47.148 217.440 C 47.248 217.993,47.490 218.499,47.686 218.564 C 47.882 218.630,48.042 219.049,48.042 219.496 C 48.042 220.524,48.390 221.451,48.702 221.258 C 48.834 221.177,48.979 221.594,49.024 222.186 C 49.069 222.778,49.317 223.433,49.575 223.642 C 49.833 223.850,50.133 224.506,50.242 225.098 C 50.351 225.691,50.864 227.101,51.384 228.231 C 51.903 229.362,52.296 230.483,52.258 230.722 C 52.220 230.962,52.352 231.158,52.552 231.158 C 52.752 231.158,52.916 231.471,52.916 231.854 C 52.916 232.237,53.081 232.550,53.284 232.550 C 53.487 232.550,53.564 232.693,53.456 232.868 C 53.348 233.044,53.408 233.239,53.589 233.304 C 53.771 233.368,54.003 233.889,54.106 234.462 C 54.209 235.035,54.453 235.557,54.648 235.623 C 54.844 235.688,55.004 236.041,55.004 236.408 C 55.004 236.775,55.150 237.076,55.329 237.076 C 55.634 237.076,56.004 237.860,56.069 238.642 C 56.085 238.834,56.304 239.225,56.555 239.513 C 56.805 239.800,57.118 240.387,57.249 240.818 C 57.381 241.249,57.634 241.601,57.813 241.601 C 57.991 241.601,58.138 241.825,58.138 242.099 C 58.138 242.372,58.340 242.803,58.587 243.056 C 58.834 243.309,59.351 244.143,59.735 244.909 C 60.120 245.674,61.047 247.241,61.797 248.390 C 62.546 249.539,63.190 250.672,63.228 250.909 C 63.266 251.146,63.782 251.825,64.375 252.418 C 64.968 253.011,65.381 253.613,65.293 253.755 C 65.205 253.898,65.595 254.521,66.161 255.140 C 66.726 255.759,67.189 256.419,67.189 256.607 C 67.189 256.963,67.568 257.490,68.773 258.814 C 69.166 259.245,69.437 259.749,69.375 259.934 C 69.313 260.119,69.987 261.005,70.871 261.902 C 71.756 262.799,72.380 263.534,72.257 263.534 C 71.991 263.534,72.417 264.076,74.543 266.442 C 75.428 267.427,76.262 268.588,76.395 269.022 C 76.529 269.455,76.784 269.720,76.962 269.610 C 77.139 269.500,77.285 269.602,77.285 269.835 C 77.285 270.069,78.969 271.964,81.027 274.047 C 83.085 276.129,84.820 278.023,84.883 278.255 C 84.959 278.537,84.890 278.527,84.676 278.223 C 84.218 277.572,78.467 277.719,77.787 278.398 C 77.515 278.671,76.985 278.917,76.610 278.945 C 76.159 278.979,76.035 279.126,76.243 279.376 C 76.454 279.631,76.304 279.763,75.790 279.776 C 74.693 279.803,74.062 280.006,73.526 280.505 C 73.268 280.744,72.755 280.940,72.386 280.940 C 72.017 280.940,71.715 281.071,71.715 281.232 C 71.715 281.393,71.359 281.687,70.924 281.885 C 70.224 282.203,70.141 282.472,70.200 284.207 C 70.244 285.507,70.142 286.092,69.899 285.942 C 69.653 285.790,69.610 286.104,69.769 286.896 C 69.990 287.998,70.011 288.519,69.951 291.471 C 69.939 292.093,70.037 293.346,70.170 294.256 C 70.375 295.651,70.324 295.909,69.845 295.909 C 69.510 295.909,69.278 295.625,69.278 295.213 C 69.278 294.830,69.453 294.517,69.668 294.517 C 69.954 294.517,69.956 294.392,69.676 294.055 C 69.431 293.760,69.321 291.996,69.372 289.181 C 69.416 286.754,69.334 284.769,69.191 284.769 C 69.047 284.769,68.930 287.265,68.930 290.315 C 68.930 295.801,68.921 295.862,68.146 295.972 C 67.495 296.065,67.345 296.333,67.256 297.563 C 67.197 298.377,67.018 299.043,66.858 299.043 C 66.698 299.043,66.470 299.295,66.352 299.604 C 66.203 299.992,66.287 300.107,66.627 299.976 C 67.171 299.768,67.679 301.451,67.217 301.929 C 66.820 302.340,66.045 301.239,65.971 300.160 C 65.935 299.641,65.725 299.256,65.503 299.304 C 65.229 299.363,65.081 298.528,65.040 296.693 L 64.980 293.995 64.767 296.258 C 64.622 297.792,64.462 298.328,64.272 297.923 C 64.117 297.594,64.078 296.419,64.186 295.312 C 64.509 292.009,64.556 283.686,64.263 281.723 C 64.075 280.466,64.109 279.896,64.371 279.896 C 64.596 279.896,64.752 280.608,64.752 281.636 C 64.752 282.594,64.892 283.377,65.064 283.377 C 65.239 283.377,65.354 280.613,65.325 277.111 C 65.297 273.665,65.147 270.845,64.993 270.845 C 64.838 270.845,64.785 270.725,64.875 270.579 C 64.965 270.434,64.796 270.003,64.500 269.622 C 64.064 269.061,64.002 269.045,64.172 269.539 C 64.310 269.938,64.206 270.148,63.871 270.148 C 63.426 270.148,63.225 269.773,63.298 269.078 C 63.309 268.968,62.510 268.841,61.522 268.796 C 60.534 268.751,59.538 268.559,59.310 268.369 C 59.081 268.179,58.450 267.947,57.907 267.854 C 56.168 267.554,55.780 267.354,55.828 266.781 C 55.854 266.472,55.640 266.151,55.352 266.068 C 54.888 265.934,54.888 265.958,55.352 266.287 C 55.679 266.518,55.718 266.658,55.457 266.661 C 55.227 266.664,54.914 266.447,54.761 266.178 C 54.564 265.834,53.457 265.631,51.001 265.489 C 46.661 265.239,46.312 265.190,46.521 264.851 C 46.614 264.701,45.907 264.578,44.950 264.578 C 43.992 264.578,43.116 264.728,43.003 264.911 C 42.890 265.094,42.540 265.145,42.226 265.024 C 41.799 264.861,41.710 264.950,41.875 265.379 C 42.008 265.725,41.872 266.077,41.531 266.268 C 41.095 266.511,40.960 267.168,40.936 269.149 C 40.906 271.677,39.600 273.091,38.677 271.596 C 38.558 271.405,38.228 271.196,37.943 271.133 C 37.657 271.070,37.219 270.744,36.969 270.409 C 36.719 270.074,36.131 269.800,35.663 269.800 C 35.196 269.800,34.813 269.626,34.813 269.414 C 34.813 269.202,34.570 269.122,34.273 269.236 C 33.963 269.355,33.823 269.297,33.945 269.100 C 34.192 268.700,33.427 268.646,32.863 269.022 C 32.234 269.442,31.630 270.830,31.891 271.253 C 32.041 271.495,31.980 271.552,31.734 271.400 C 31.512 271.263,31.332 271.317,31.332 271.520 C 31.332 271.723,31.488 271.889,31.680 271.889 C 31.871 271.889,32.028 272.446,32.028 273.128 C 32.028 274.026,31.908 274.295,31.593 274.105 C 31.264 273.908,31.250 273.967,31.535 274.346 C 31.973 274.929,31.982 276.381,31.551 277.054 C 31.374 277.330,31.410 277.677,31.640 277.907 C 32.129 278.396,32.167 281.763,31.680 281.462 C 31.460 281.326,31.352 282.055,31.388 283.443 L 31.445 285.640 31.661 283.725 L 31.877 281.810 32.079 283.899 C 32.694 290.234,32.301 346.598,31.646 346.193 C 31.287 345.972,31.635 347.060,32.125 347.694 C 32.699 348.437,374.786 348.321,375.072 347.578 C 375.344 346.867,375.340 320.003,375.066 318.985 C 374.822 318.073,374.226 317.843,371.838 317.743 C 370.861 317.701,370.061 317.541,370.061 317.386 C 370.061 317.231,370.218 317.201,370.409 317.319 C 370.601 317.438,370.757 317.402,370.757 317.240 C 370.757 317.078,369.791 316.919,368.611 316.887 C 366.526 316.829,365.901 316.509,365.889 315.492 C 365.879 314.737,366.524 315.020,366.682 315.840 C 366.765 316.271,366.854 314.547,366.880 312.010 C 366.919 308.244,366.837 307.398,366.435 307.398 C 366.044 307.398,365.961 306.810,366.030 304.526 C 366.121 301.503,365.880 300.783,364.776 300.783 C 364.405 300.783,364.197 300.628,364.314 300.439 C 364.436 300.242,364.297 300.183,363.987 300.302 C 363.690 300.416,363.446 300.347,363.446 300.148 C 363.446 299.948,362.982 299.799,362.414 299.815 C 361.846 299.831,361.148 299.650,360.863 299.413 C 360.577 299.177,360.191 299.077,360.004 299.192 C 359.818 299.308,359.584 299.271,359.485 299.111 C 359.386 298.950,358.419 298.801,357.337 298.779 C 354.963 298.731,355.170 298.930,355.063 296.606 C 354.950 294.173,354.787 293.730,354.100 293.993 C 353.795 294.110,353.657 294.094,353.793 293.958 C 354.205 293.547,353.321 292.776,352.438 292.776 C 351.983 292.776,351.610 292.600,351.610 292.386 C 351.610 292.120,351.438 292.138,351.073 292.440 C 350.636 292.803,350.458 292.801,350.116 292.432 C 349.786 292.076,349.789 292.031,350.131 292.224 C 350.370 292.359,350.566 292.318,350.566 292.134 C 350.566 291.640,347.710 292.082,347.019 292.682 C 346.696 292.963,346.244 293.077,346.015 292.935 C 345.729 292.758,345.858 292.533,346.428 292.217 C 346.885 291.964,347.098 291.751,346.901 291.744 C 346.704 291.737,346.195 291.976,345.769 292.274 L 344.996 292.816 344.996 279.567 C 344.996 267.618,344.838 265.129,344.182 266.754 C 344.085 266.993,343.994 266.814,343.979 266.357 C 343.964 265.899,344.218 265.330,344.545 265.091 C 345.617 264.307,342.095 261.481,340.383 261.752 C 340.239 261.774,340.161 261.597,340.209 261.358 C 340.269 261.059,339.751 260.914,338.555 260.895 C 336.556 260.863,335.864 261.099,336.838 261.480 C 337.233 261.635,336.325 261.754,334.639 261.768 C 331.509 261.795,331.344 261.683,332.663 260.432 C 333.149 259.970,333.791 259.109,334.090 258.517 C 334.389 257.925,334.940 257.106,335.314 256.696 C 335.688 256.286,336.028 255.725,336.068 255.450 C 336.109 255.175,336.567 254.524,337.087 254.004 C 337.608 253.484,338.033 252.823,338.033 252.535 C 338.033 252.247,338.425 251.649,338.903 251.205 C 339.382 250.762,339.774 250.244,339.774 250.056 C 339.774 249.867,340.244 249.064,340.818 248.271 C 341.393 247.478,341.862 246.691,341.862 246.521 C 341.862 246.351,342.097 246.017,342.385 245.779 C 342.672 245.541,342.909 245.091,342.912 244.779 C 342.915 244.467,343.385 243.682,343.957 243.034 C 345.006 241.843,345.258 241.398,344.680 241.755 C 344.507 241.863,344.544 241.570,344.763 241.105 C 344.983 240.640,345.222 240.319,345.294 240.391 C 345.490 240.587,348.129 235.378,348.129 234.794 C 348.129 234.517,348.273 234.291,348.450 234.291 C 348.627 234.291,348.961 233.703,349.193 232.985 C 349.425 232.267,349.860 231.210,350.159 230.635 C 350.459 230.061,350.761 229.202,350.831 228.727 C 350.902 228.252,351.119 227.765,351.314 227.644 C 351.510 227.523,351.646 227.364,351.617 227.289 C 351.516 227.027,352.086 225.759,352.400 225.547 C 352.575 225.429,352.800 224.729,352.899 223.991 C 352.999 223.252,353.294 222.487,353.556 222.290 C 353.818 222.093,354.070 221.405,354.117 220.760 C 354.163 220.116,354.402 219.511,354.646 219.417 C 354.891 219.324,355.091 218.881,355.091 218.434 C 355.091 217.987,355.259 217.518,355.463 217.392 C 355.668 217.265,355.751 216.943,355.648 216.675 C 355.545 216.407,355.613 216.188,355.799 216.188 C 355.984 216.188,356.136 215.826,356.136 215.384 C 356.136 214.942,356.366 214.276,356.647 213.905 C 356.928 213.533,357.165 212.524,357.174 211.662 C 357.186 210.597,357.291 210.254,357.503 210.590 C 357.724 210.938,357.889 210.580,358.064 209.371 C 358.201 208.429,358.436 207.502,358.587 207.311 C 358.917 206.893,358.919 206.873,358.926 204.787 C 358.930 203.591,359.025 203.278,359.269 203.655 C 359.455 203.943,359.621 204.021,359.638 203.829 C 359.656 203.638,359.735 203.168,359.815 202.785 C 359.894 202.402,359.995 201.405,360.039 200.569 C 360.084 199.722,360.317 198.973,360.565 198.878 C 360.848 198.769,361.010 198.037,361.010 196.859 C 361.010 195.842,361.172 194.956,361.371 194.890 C 361.570 194.823,361.826 193.596,361.940 192.163 C 362.055 190.729,362.303 189.360,362.492 189.121 C 362.681 188.882,362.719 188.686,362.576 188.686 C 362.434 188.686,362.469 188.490,362.655 188.251 C 362.840 188.011,363.028 186.251,363.071 184.339 C 363.117 182.311,363.320 180.651,363.559 180.356 C 363.873 179.967,363.873 179.906,363.558 180.096 C 363.331 180.231,363.048 180.183,362.928 179.988 C 362.808 179.794,362.884 179.634,363.098 179.634 C 363.317 179.634,363.373 179.444,363.226 179.199 C 363.018 178.854,363.073 178.852,363.494 179.192 C 363.937 179.551,364.018 179.495,363.996 178.844 L 363.969 178.068 381.984 177.978 L 400.000 177.888 400.000 118.622 L 400.000 59.356 363.799 59.434 C 329.385 59.508,326.545 59.463,326.545 58.848 C 326.545 58.706,325.766 57.764,324.815 56.756 C 323.863 55.748,322.991 54.628,322.877 54.267 C 322.762 53.907,322.440 53.612,322.161 53.612 C 321.882 53.612,321.513 53.259,321.341 52.829 C 320.965 51.884,316.737 47.694,316.161 47.694 C 315.936 47.694,315.792 47.576,315.840 47.432 C 315.986 46.991,313.599 44.908,313.218 45.143 C 313.011 45.271,312.966 45.193,313.110 44.960 C 313.252 44.730,313.108 44.459,312.774 44.331 C 312.452 44.207,310.904 42.837,309.334 41.287 C 306.601 38.587,303.827 36.205,303.415 36.205 C 303.308 36.205,302.935 35.931,302.586 35.596 C 300.876 33.955,299.847 33.210,299.464 33.338 C 299.232 33.415,299.043 33.230,299.043 32.927 C 299.043 32.624,298.909 32.376,298.745 32.376 C 298.582 32.376,298.025 31.984,297.509 31.506 C 296.992 31.027,296.334 30.635,296.045 30.635 C 295.756 30.635,295.617 30.479,295.735 30.287 C 295.854 30.096,295.744 29.939,295.491 29.939 C 295.239 29.939,294.642 29.579,294.165 29.138 C 293.689 28.697,292.751 28.032,292.081 27.658 C 291.411 27.285,290.656 26.745,290.402 26.458 C 289.991 25.994,289.970 25.994,290.209 26.458 C 290.357 26.745,289.909 26.549,289.214 26.023 C 288.518 25.496,287.799 25.065,287.615 25.065 C 287.431 25.065,287.187 24.820,287.072 24.521 C 286.957 24.222,286.726 24.061,286.559 24.165 C 286.392 24.268,285.975 24.043,285.632 23.665 C 285.290 23.286,284.721 22.977,284.367 22.977 C 284.014 22.977,283.725 22.830,283.725 22.652 C 283.725 22.473,283.372 22.216,282.942 22.080 C 282.511 21.943,281.649 21.444,281.027 20.970 C 280.405 20.497,279.893 20.245,279.890 20.411 C 279.887 20.578,279.770 20.553,279.629 20.356 C 279.488 20.159,278.708 19.705,277.894 19.346 C 277.080 18.987,276.414 18.544,276.414 18.361 C 276.414 18.178,276.179 18.118,275.892 18.229 C 275.605 18.339,275.370 18.289,275.370 18.119 C 275.370 17.948,274.782 17.615,274.064 17.379 C 273.346 17.142,272.551 16.699,272.298 16.394 C 272.044 16.089,271.943 16.047,272.073 16.301 C 272.373 16.886,270.943 16.128,270.216 15.318 C 269.800 14.853,269.778 14.853,270.015 15.318 C 270.226 15.731,270.177 15.759,269.780 15.453 C 269.504 15.240,268.840 14.961,268.306 14.833 C 267.709 14.691,267.428 14.450,267.577 14.209 C 267.718 13.981,267.663 13.914,267.445 14.049 C 267.239 14.176,266.825 14.033,266.523 13.732 C 266.222 13.431,265.794 13.297,265.571 13.435 C 265.320 13.590,265.260 13.533,265.415 13.283 C 265.582 13.012,265.315 12.881,264.598 12.881 C 264.013 12.881,263.534 12.739,263.534 12.565 C 263.534 12.391,262.633 11.976,261.532 11.642 C 259.327 10.974,256.407 9.879,255.403 9.344 C 254.936 9.095,254.826 9.110,255.004 9.399 C 255.262 9.816,255.168 9.780,252.862 8.579 C 252.258 8.264,251.298 8.007,250.729 8.007 C 250.159 8.007,249.526 7.805,249.320 7.557 C 249.115 7.310,248.364 7.068,247.651 7.020 C 246.939 6.972,246.136 6.665,245.868 6.338 C 245.548 5.949,245.466 5.924,245.630 6.266 C 245.834 6.690,245.793 6.706,245.412 6.353 C 245.154 6.114,244.544 5.913,244.056 5.907 C 243.567 5.901,242.864 5.666,242.492 5.385 C 242.121 5.104,241.651 4.876,241.448 4.879 C 241.245 4.882,241.314 5.036,241.601 5.222 C 241.889 5.408,241.959 5.562,241.758 5.565 C 241.557 5.568,241.244 5.422,241.062 5.241 C 240.880 5.060,240.000 4.864,239.107 4.806 C 238.213 4.747,237.508 4.547,237.540 4.361 C 237.572 4.175,236.910 3.980,236.069 3.927 C 235.228 3.875,234.327 3.656,234.067 3.440 C 233.702 3.137,233.594 3.177,233.594 3.613 C 233.594 3.923,233.421 4.178,233.209 4.178 C 232.997 4.178,232.917 3.934,233.031 3.637 C 233.150 3.327,233.092 3.188,232.894 3.310 C 232.705 3.427,232.550 3.391,232.550 3.229 C 232.550 3.068,231.841 2.906,230.974 2.868 C 230.107 2.830,229.065 2.621,228.658 2.404 C 228.031 2.068,227.951 2.093,228.135 2.570 C 228.451 3.394,227.475 3.280,226.584 2.389 C 225.895 1.700,225.585 1.659,222.406 1.834 C 219.657 1.985,218.973 1.929,218.973 1.551 C 218.973 1.161,215.856 1.077,200.834 1.064 C 184.873 1.049,182.718 1.110,182.894 1.568 C 183.046 1.964,182.826 2.087,181.973 2.083 C 181.157 2.080,180.990 1.991,181.358 1.758 C 181.637 1.582,182.013 1.531,182.196 1.643 C 182.378 1.756,182.415 1.667,182.279 1.446 C 181.983 0.968,182.028 0.970,181.375 1.393 M216.868 12.004 C 225.322 12.865,235.379 14.769,241.775 16.718 C 259.306 22.060,272.856 28.162,283.899 35.686 C 296.281 44.123,312.624 58.115,311.749 59.531 C 311.467 59.987,90.862 60.015,90.862 59.558 C 90.862 58.381,101.251 48.422,107.398 43.706 C 129.050 27.095,151.410 17.344,176.849 13.420 C 178.860 13.109,181.366 12.709,182.419 12.529 C 183.473 12.350,187.076 12.040,190.426 11.840 C 193.777 11.640,197.224 11.417,198.085 11.344 C 200.820 11.114,211.976 11.506,216.868 12.004 M52.306 58.396 C 53.599 58.463,55.714 58.463,57.006 58.396 C 58.299 58.329,57.241 58.274,54.656 58.274 C 52.071 58.274,51.014 58.329,52.306 58.396 M332.202 58.377 C 332.537 58.465,333.085 58.465,333.420 58.377 C 333.755 58.290,333.481 58.218,332.811 58.218 C 332.141 58.218,331.867 58.290,332.202 58.377 M339.339 58.397 C 340.918 58.461,343.503 58.461,345.083 58.397 C 346.662 58.332,345.370 58.279,342.211 58.279 C 339.051 58.279,337.759 58.332,339.339 58.397 M163.659 89.838 C 164.065 90.055,166.139 93.805,168.714 98.976 C 171.116 103.799,173.255 107.956,173.468 108.212 C 174.031 108.893,174.246 108.528,179.144 98.612 C 183.943 88.896,183.542 89.352,187.134 89.537 L 189.208 89.643 189.208 104.439 L 189.208 119.234 187.119 119.234 L 185.030 119.234 184.843 109.312 C 184.740 103.856,184.622 99.352,184.582 99.304 C 184.198 98.849,183.377 100.249,180.191 106.789 C 175.235 116.960,175.822 116.101,173.825 116.101 L 172.150 116.101 168.069 107.920 C 165.770 103.311,163.755 99.690,163.456 99.626 C 162.989 99.528,162.924 100.683,162.924 109.070 C 162.924 119.945,163.045 119.510,160.080 119.340 L 158.225 119.234 158.134 105.032 C 158.073 95.638,158.166 90.600,158.407 90.150 C 158.823 89.372,162.392 89.160,163.659 89.838 M200.634 89.904 C 201.179 90.304,201.220 91.514,201.136 104.787 L 201.044 119.234 198.782 119.234 L 196.519 119.234 196.428 104.827 C 196.362 94.481,196.448 90.286,196.732 89.945 C 197.226 89.349,199.840 89.322,200.634 89.904 M212.685 90.078 C 213.098 90.413,216.601 94.909,220.469 100.067 C 224.337 105.226,227.698 109.508,227.937 109.583 C 228.277 109.689,228.380 107.713,228.407 100.551 C 228.450 89.253,228.356 89.673,230.855 89.540 C 233.770 89.385,233.614 88.492,233.511 104.827 L 233.420 119.234 231.081 119.337 C 228.278 119.460,229.523 120.716,220.540 108.702 C 216.710 103.581,213.420 99.430,213.229 99.477 C 213.012 99.531,212.815 103.279,212.707 109.399 L 212.533 119.234 210.412 119.336 C 208.894 119.409,208.174 119.296,207.877 118.939 C 207.193 118.115,207.484 90.250,208.181 89.810 C 209.074 89.245,211.863 89.412,212.685 90.078 M244.536 90.016 C 245.369 90.849,245.365 118.877,244.532 119.197 C 243.484 119.599,240.651 119.419,240.240 118.924 C 239.568 118.114,239.872 90.243,240.557 89.810 C 241.399 89.278,243.928 89.409,244.536 90.016 M84.178 133.055 C 84.732 133.609,84.719 136.694,84.160 137.055 C 83.921 137.210,81.845 137.415,79.547 137.511 L 75.370 137.685 75.196 150.044 L 75.022 162.402 72.759 162.402 L 70.496 162.402 70.311 150.044 C 70.209 143.246,70.091 137.646,70.050 137.598 C 70.008 137.550,68.240 137.511,66.122 137.511 C 61.335 137.511,60.923 137.322,60.923 135.131 C 60.923 134.219,61.111 133.285,61.340 133.055 C 61.938 132.457,83.580 132.457,84.178 133.055 M102.669 133.030 C 112.134 134.655,115.148 145.945,107.600 151.496 C 105.726 152.874,105.730 152.892,109.023 157.726 C 112.272 162.496,112.263 162.658,108.765 162.506 L 106.371 162.402 103.751 158.050 L 101.131 153.699 97.563 153.600 C 92.533 153.460,92.645 153.354,92.526 158.318 L 92.428 162.402 90.165 162.402 L 87.903 162.402 87.812 147.995 C 87.746 137.649,87.832 133.454,88.115 133.113 C 88.619 132.506,99.262 132.446,102.669 133.030 M121.762 132.926 C 122.106 133.145,122.181 136.356,122.110 147.804 L 122.019 162.402 119.756 162.402 L 117.493 162.402 117.403 147.955 C 117.352 140.009,117.387 133.312,117.479 133.072 C 117.666 132.584,121.041 132.469,121.762 132.926 M143.401 133.030 C 150.413 134.234,153.800 139.550,151.891 146.355 C 150.505 151.293,146.603 153.521,139.325 153.530 C 133.612 153.537,133.893 153.299,133.681 158.298 L 133.507 162.402 131.245 162.402 L 128.982 162.402 128.891 147.995 C 128.825 137.649,128.911 133.454,129.195 133.113 C 129.698 132.506,139.998 132.446,143.401 133.030 M170.484 133.326 C 171.031 133.965,172.349 136.880,178.047 150.044 C 179.249 152.820,180.590 155.875,181.027 156.832 C 183.632 162.538,183.630 162.578,180.777 162.571 C 178.153 162.564,178.053 162.481,176.544 159.054 L 175.259 156.136 167.921 156.042 C 159.573 155.935,160.374 155.639,158.768 159.433 C 157.465 162.512,157.401 162.564,154.851 162.571 C 152.003 162.578,152.002 162.584,156.970 151.688 C 157.675 150.141,158.875 147.397,163.093 137.685 C 164.008 135.579,165.066 133.581,165.445 133.246 C 166.459 132.350,169.692 132.401,170.484 133.326 M201.900 133.156 C 217.289 136.393,217.792 157.972,202.573 162.020 C 200.754 162.503,199.077 162.592,193.386 162.507 L 186.423 162.402 186.332 147.995 C 186.267 137.649,186.352 133.454,186.636 133.113 C 187.211 132.419,198.549 132.451,201.900 133.156 M219.460 133.420 C 219.855 134.036,225.137 147.672,227.513 154.209 C 228.557 157.082,228.804 156.577,236.755 135.308 C 237.101 134.383,237.569 133.404,237.795 133.132 C 238.370 132.438,242.246 132.445,242.513 133.141 C 242.670 133.550,240.053 140.585,237.975 145.344 C 237.724 145.918,236.143 149.835,234.462 154.047 C 230.778 163.278,231.282 162.576,228.339 162.576 C 225.453 162.576,226.190 163.754,221.257 151.262 C 217.449 141.621,215.799 137.504,214.938 135.497 C 213.907 133.094,214.226 132.637,216.934 132.637 C 218.651 132.637,219.033 132.756,219.460 133.420 M250.479 147.607 L 250.479 162.402 248.216 162.402 L 245.953 162.402 245.862 147.995 C 245.759 131.651,245.601 132.554,248.533 132.708 L 250.479 132.811 250.479 147.607 M271.715 133.112 C 276.612 134.426,277.635 135.511,276.395 138.073 C 275.522 139.876,275.627 139.869,271.786 138.410 C 266.031 136.224,260.808 137.985,262.327 141.600 C 262.936 143.047,263.859 143.594,268.299 145.138 C 275.872 147.771,277.807 149.601,277.807 154.134 C 277.807 162.357,265.903 165.571,256.929 159.770 C 254.615 158.275,254.504 157.966,255.542 155.931 C 256.431 154.189,257.058 153.935,258.267 154.829 C 264.870 159.711,274.526 158.266,271.709 152.817 C 271.052 151.546,270.006 151.001,265.049 149.345 C 257.837 146.935,255.556 144.296,256.415 139.355 C 257.307 134.223,264.663 131.221,271.715 133.112 M300.190 133.186 C 310.185 135.776,314.816 146.899,309.497 155.543 C 304.461 163.727,291.829 165.221,284.839 158.457 C 273.427 147.415,284.535 129.129,300.190 133.186 M330.694 133.030 C 340.016 134.631,343.264 146.036,335.904 151.324 C 333.753 152.869,333.698 152.561,337.023 157.580 C 340.209 162.389,340.216 162.576,337.209 162.576 C 334.489 162.576,334.453 162.545,331.620 157.791 C 328.962 153.331,329.168 153.451,324.456 153.597 L 321.149 153.699 321.050 157.681 C 320.930 162.495,320.840 162.639,318.047 162.504 L 315.927 162.402 315.836 147.995 C 315.771 137.649,315.856 133.454,316.140 133.113 C 316.643 132.506,327.286 132.446,330.694 133.030 M294.169 137.505 C 282.666 139.191,282.606 155.885,294.095 157.974 C 300.314 159.104,305.864 154.758,306.277 148.435 C 306.733 141.461,301.207 136.473,294.169 137.505 M92.814 138.062 C 92.378 139.198,92.584 147.797,93.064 148.453 C 93.756 149.400,102.317 149.142,104.060 148.121 C 107.803 145.930,107.778 139.911,104.019 138.204 C 101.984 137.281,93.156 137.169,92.814 138.062 M134.117 137.906 C 133.487 138.543,133.510 147.588,134.143 148.453 C 134.892 149.477,143.093 149.131,144.926 147.998 C 148.140 146.011,148.331 140.986,145.281 138.656 C 143.806 137.531,135.069 136.943,134.117 137.906 M191.334 138.062 C 190.773 139.522,191.113 156.946,191.714 157.547 C 192.508 158.342,200.317 158.115,202.381 157.236 C 210.392 153.828,210.655 142.153,202.803 138.435 C 200.370 137.283,191.741 137.002,191.334 138.062 M321.053 143.168 L 321.149 148.825 326.023 148.825 C 332.728 148.825,334.900 147.470,334.900 143.285 C 334.900 138.819,332.887 137.525,325.927 137.517 L 320.958 137.511 321.053 143.168 M167.311 139.542 C 166.482 140.884,162.587 150.613,162.730 150.986 C 162.872 151.356,163.932 151.435,167.700 151.359 C 173.722 151.237,173.501 151.652,170.820 145.518 C 170.443 144.656,169.702 142.938,169.172 141.699 C 168.227 139.487,167.713 138.892,167.311 139.542 M352.691 177.459 C 352.932 181.427,350.474 195.855,348.288 203.307 C 345.543 212.666,342.638 220.775,340.121 226.110 C 339.307 227.833,338.355 229.869,338.005 230.635 C 330.683 246.653,316.785 264.607,301.058 278.365 C 293.461 285.010,294.196 286.195,294.085 267.125 L 293.995 251.545 292.602 250.757 C 290.633 249.641,290.238 249.711,285.292 252.045 C 280.832 254.150,279.001 254.580,278.629 253.612 C 278.309 252.779,277.456 252.986,277.550 253.873 C 277.631 254.642,277.561 254.657,273.803 254.680 C 269.891 254.703,267.317 255.009,266.232 255.579 C 265.663 255.878,265.622 257.105,265.617 273.729 C 265.614 283.535,265.477 291.771,265.311 292.032 C 264.962 292.584,262.959 292.385,259.356 291.439 L 257.093 290.845 256.877 284.239 C 256.759 280.606,256.641 272.515,256.616 266.259 C 256.544 248.259,254.779 238.816,251.486 238.816 C 251.229 238.816,250.152 238.405,249.091 237.903 C 246.875 236.854,245.821 236.877,240.035 238.106 C 235.260 239.121,235.331 239.090,234.795 240.371 C 234.533 240.998,233.753 241.965,233.061 242.521 C 230.915 244.242,230.142 250.143,229.805 267.363 C 229.621 276.783,229.517 278.329,229.069 278.329 C 228.624 278.329,228.534 277.265,228.459 271.192 C 228.355 262.699,228.335 262.584,226.857 261.966 C 224.355 260.920,219.563 259.951,218.911 260.358 C 218.136 260.842,216.651 260.867,216.362 260.400 C 216.089 259.958,214.284 259.955,212.124 260.393 C 211.200 260.580,209.191 260.989,207.659 261.301 C 206.127 261.613,204.666 262.037,204.412 262.244 C 203.503 262.981,203.318 261.599,203.313 254.055 L 203.307 246.491 202.437 245.921 C 201.572 245.355,201.567 245.315,201.561 240.082 C 201.555 233.732,201.822 234.199,197.364 232.739 C 195.367 232.085,191.714 230.839,189.246 229.971 C 184.380 228.258,184.760 228.273,180.157 229.592 C 176.390 230.671,175.004 231.065,169.191 232.711 C 162.081 234.724,162.371 234.428,162.049 240.002 C 161.820 243.969,161.730 244.391,160.969 245.053 C 160.204 245.718,160.139 246.031,160.139 249.072 C 160.139 252.997,160.451 252.708,154.866 253.968 C 145.307 256.124,145.851 255.736,146.118 260.209 C 146.405 265.021,146.294 265.271,143.858 265.289 C 141.690 265.306,139.023 265.734,138.628 266.130 C 138.492 266.266,138.381 268.440,138.381 270.961 L 138.381 275.544 137.530 275.664 C 136.494 275.810,132.631 275.048,132.028 274.579 C 131.742 274.356,131.593 273.249,131.593 271.349 C 131.593 268.421,130.873 267.015,129.376 267.015 C 129.166 267.015,126.838 266.304,124.204 265.435 C 120.470 264.203,119.264 263.934,118.737 264.216 C 118.366 264.415,117.307 264.585,116.385 264.593 C 114.014 264.614,111.895 265.079,111.258 265.716 C 110.958 266.016,110.201 266.373,109.577 266.509 C 108.953 266.645,107.999 267.128,107.458 267.582 C 106.916 268.036,105.849 268.508,105.085 268.630 C 102.829 268.990,102.698 269.295,102.698 274.176 C 102.698 279.843,102.832 279.868,95.492 272.846 C 82.854 260.756,74.018 248.924,65.851 233.157 C 63.649 228.905,60.228 221.262,58.981 217.807 C 56.420 210.711,54.098 202.982,52.795 197.215 C 51.120 189.800,49.455 178.010,49.966 177.183 C 50.400 176.481,352.649 176.756,352.691 177.459 M344.360 279.754 C 344.342 286.390,344.246 291.901,344.146 292.001 C 344.047 292.101,343.969 286.579,343.974 279.730 C 343.979 272.882,344.075 267.371,344.188 267.484 C 344.301 267.597,344.379 273.118,344.360 279.754 M324.206 286.001 C 323.869 286.247,323.448 286.358,323.269 286.248 C 323.091 286.138,323.041 286.298,323.159 286.604 C 323.276 286.911,323.232 287.211,323.061 287.271 C 322.889 287.331,322.702 291.218,322.645 295.909 L 322.541 304.439 321.620 304.378 C 320.763 304.322,320.703 304.412,320.750 305.684 C 320.797 306.957,320.272 307.536,319.785 306.748 C 319.683 306.582,319.203 306.522,318.720 306.615 L 317.842 306.783 317.842 295.149 C 317.842 282.943,317.811 282.693,316.292 282.670 C 314.370 282.640,314.241 281.811,315.899 280.152 C 316.759 279.292,317.380 278.505,317.278 278.404 C 317.176 278.302,317.402 278.120,317.781 278.000 C 318.159 277.880,318.567 277.389,318.688 276.910 C 318.808 276.430,319.058 276.132,319.244 276.247 C 319.430 276.361,319.582 276.284,319.582 276.075 C 319.582 275.867,320.718 274.522,322.106 273.087 L 324.630 270.479 324.724 278.016 C 324.810 284.871,324.763 285.593,324.206 286.001 M88.077 281.114 C 88.432 281.542,88.408 281.636,87.945 281.636 C 87.634 281.636,87.380 281.401,87.380 281.114 C 87.380 280.827,87.439 280.592,87.512 280.592 C 87.584 280.592,87.838 280.827,88.077 281.114 M64.752 288.947 C 64.752 289.713,64.909 290.339,65.100 290.339 C 65.292 290.339,65.448 289.713,65.448 288.947 C 65.448 288.181,65.292 287.554,65.100 287.554 C 64.909 287.554,64.752 288.181,64.752 288.947 M101.062 292.032 C 101.233 291.603,101.455 292.485,101.353 293.192 C 101.334 293.324,101.289 296.066,101.252 299.284 C 101.215 302.502,101.123 304.782,101.047 304.352 C 100.971 303.921,100.783 303.568,100.629 303.568 C 100.249 303.568,100.270 301.863,100.653 301.627 C 100.820 301.523,100.955 301.252,100.952 301.024 C 100.949 300.775,100.812 300.818,100.609 301.131 C 100.346 301.538,100.271 301.442,100.266 300.696 C 100.263 300.170,100.437 299.739,100.652 299.739 C 100.915 299.739,100.931 299.596,100.701 299.304 C 100.513 299.064,100.337 297.224,100.310 295.213 C 100.279 292.996,100.380 291.745,100.566 292.032 C 100.825 292.433,100.902 292.433,101.062 292.032 M102.271 298.085 C 102.183 299.187,102.079 299.407,101.863 298.949 C 101.704 298.610,101.706 297.278,101.867 295.990 C 102.197 293.360,102.517 295.020,102.271 298.085 M31.142 319.582 C 31.142 327.337,31.188 330.509,31.244 326.632 C 31.300 322.755,31.300 316.410,31.244 312.533 C 31.188 308.655,31.142 311.828,31.142 319.582 M366.580 309.507 C 366.580 310.476,366.439 311.181,366.266 311.075 C 365.945 310.876,365.824 308.475,366.112 308.007 C 366.461 307.439,366.580 307.820,366.580 309.507 M366.580 313.316 C 366.580 314.082,366.423 314.708,366.232 314.708 C 366.040 314.708,365.883 314.082,365.883 313.316 C 365.883 312.550,366.040 311.923,366.232 311.923 C 366.423 311.923,366.580 312.550,366.580 313.316 " stroke="none" fill="#3c5c84" fill-rule="evenodd"></path></g></svg>